<svg width="16" height="21" viewBox="0 0 16 21" fill="none" xmlns="http://www.w3.org/2000/svg">
<path fill-rule="evenodd" clip-rule="evenodd" d="M8 0C12.1052 0 15.5 3.17875 15.5 7.17188C15.5 9.42143 14.2828 12.2064 12.9496 14.6139C11.5963 17.0577 10.0377 19.2599 9.20196 20.389C9.06405 20.5776 8.88371 20.731 8.6755 20.837C8.46625 20.9435 8.23479 20.999 8 20.999C7.76521 20.999 7.53375 20.9435 7.3245 20.837C7.11707 20.7314 6.93733 20.5787 6.79962 20.3912C5.96421 19.2631 4.40459 17.0605 3.05045 14.6155C1.71714 12.2082 0.5 9.42303 0.5 7.17188C0.5 3.17875 3.89479 0 8 0ZM14 7.17188C14 4.07656 11.3479 1.5 8 1.5C4.65209 1.5 2 4.07656 2 7.17188C2 9.00213 3.03286 11.4878 4.36264 13.8888C5.66887 16.2473 7.18187 18.3865 8 19.4917C8.81816 18.386 10.3311 16.246 11.6373 13.8872C12.9672 11.4859 14 9.00045 14 7.17188ZM9.45312 7.56241C9.45312 6.75995 8.80257 6.10938 8 6.10938C7.19743 6.10938 6.54688 6.75995 6.54688 7.56241C6.54688 8.36487 7.19743 9.01544 8 9.01544C8.80257 9.01544 9.45312 8.36487 9.45312 7.56241ZM8 4.60938C9.63094 4.60938 10.9531 5.93146 10.9531 7.56241C10.9531 9.19335 9.63094 10.5154 8 10.5154C6.36906 10.5154 5.04688 9.19335 5.04688 7.56241C5.04688 5.93146 6.36906 4.60938 8 4.60938Z" fill="#E80505"/>
</svg>
