<svg width="21" height="20" viewBox="0 0 17 20" fill="none" xmlns="http://www.w3.org/2000/svg">
<path d="M3.5 0H13.5C14.2956 0 15.0587 0.31607 15.6213 0.87868C16.1839 1.44129 16.5 2.20435 16.5 3V17C16.5 17.7956 16.1839 18.5587 15.6213 19.1213C15.0587 19.6839 14.2956 20 13.5 20H3.5C2.70435 20 1.94129 19.6839 1.37868 19.1213C0.81607 18.5587 0.5 17.7956 0.5 17L0.5 3C0.5 2.20435 0.81607 1.44129 1.37868 0.87868C1.94129 0.31607 2.70435 0 3.5 0ZM3.5 2C3.23478 2 2.98043 2.10536 2.79289 2.29289C2.60536 2.48043 2.5 2.73478 2.5 3V17C2.5 17.2652 2.60536 17.5196 2.79289 17.7071C2.98043 17.8946 3.23478 18 3.5 18H13.5C13.7652 18 14.0196 17.8946 14.2071 17.7071C14.3946 17.5196 14.5 17.2652 14.5 17V3C14.5 2.73478 14.3946 2.48043 14.2071 2.29289C14.0196 2.10536 13.7652 2 13.5 2H3.5ZM5.5 3H11.5C11.7652 3 12.0196 3.10536 12.2071 3.29289C12.3946 3.48043 12.5 3.73478 12.5 4C12.5 4.26522 12.3946 4.51957 12.2071 4.70711C12.0196 4.89464 11.7652 5 11.5 5H5.5C5.23478 5 4.98043 4.89464 4.79289 4.70711C4.60536 4.51957 4.5 4.26522 4.5 4C4.5 3.73478 4.60536 3.48043 4.79289 3.29289C4.98043 3.10536 5.23478 3 5.5 3ZM5.5 15H7.5C7.76522 15 8.01957 15.1054 8.20711 15.2929C8.39464 15.4804 8.5 15.7348 8.5 16C8.5 16.2652 8.39464 16.5196 8.20711 16.7071C8.01957 16.8946 7.76522 17 7.5 17H5.5C5.23478 17 4.98043 16.8946 4.79289 16.7071C4.60536 16.5196 4.5 16.2652 4.5 16C4.5 15.7348 4.60536 15.4804 4.79289 15.2929C4.98043 15.1054 5.23478 15 5.5 15ZM5.5 11H11.5C11.7652 11 12.0196 11.1054 12.2071 11.2929C12.3946 11.4804 12.5 11.7348 12.5 12C12.5 12.2652 12.3946 12.5196 12.2071 12.7071C12.0196 12.8946 11.7652 13 11.5 13H5.5C5.23478 13 4.98043 12.8946 4.79289 12.7071C4.60536 12.5196 4.5 12.2652 4.5 12C4.5 11.7348 4.60536 11.4804 4.79289 11.2929C4.98043 11.1054 5.23478 11 5.5 11ZM5.5 7H11.5C11.7652 7 12.0196 7.10536 12.2071 7.29289C12.3946 7.48043 12.5 7.73478 12.5 8C12.5 8.26522 12.3946 8.51957 12.2071 8.70711C12.0196 8.89464 11.7652 9 11.5 9H5.5C5.23478 9 4.98043 8.89464 4.79289 8.70711C4.60536 8.51957 4.5 8.26522 4.5 8C4.5 7.73478 4.60536 7.48043 4.79289 7.29289C4.98043 7.10536 5.23478 7 5.5 7Z" fill="#1A1003"/>
</svg>
